# Blender v2.66 (sub 1) OBJ File: 'house_01.blend'
# www.blender.org
mtllib house_01.mtl
o house_01
v -0.999999 0.000000 1.000001
v -1.000001 0.000000 -0.999999
v 0.999999 0.000000 -1.000001
v 1.000001 0.000000 0.999999
v -0.999999 2.759725 1.000001
v -1.000001 2.759725 -0.999999
v 0.999999 2.759725 -1.000001
v 1.000001 2.759725 0.999999
vt 0.666925 0.460230
vt 0.998981 0.459211
vt 1.000000 0.791268
vt 1.000000 0.127155
vt 0.666925 0.458193
vt 0.332057 0.459211
vt 0.333462 0.917404
vt 0.000000 0.460230
vt 0.334868 0.918423
vt 0.333462 0.460230
vt 0.666925 0.917404
vt 0.665519 0.000000
vt 0.334868 0.459211
vt 0.332057 0.000000
vt 0.333462 0.458193
vt 0.001406 0.459211
vt 0.667943 0.792287
vt 0.667943 0.126136
vt 0.001406 0.918422
vt 0.665519 0.459211
vt 0.333462 0.001019
vt 0.000000 0.001019
vn 0.000000 -1.000000 0.000000
vn 0.000000 1.000000 -0.000000
vn -1.000000 -0.000000 0.000001
vn -0.000001 -0.000000 -1.000000
vn 1.000000 -0.000000 -0.000001
vn 0.000001 0.000000 1.000000
usemtl house_01
s off
f 1/1/1 2/2/1 3/3/1
f 5/4/2 8/2/2 7/5/2
f 1/6/3 5/7/3 2/8/3
f 2/9/4 6/10/4 3/11/4
f 3/12/5 7/5/5 8/13/5
f 5/14/6 1/15/6 4/16/6
f 4/17/1 1/1/1 3/3/1
f 6/18/2 5/4/2 7/5/2
f 5/7/3 6/19/3 2/8/3
f 6/10/4 7/20/4 3/11/4
f 4/21/5 3/12/5 8/13/5
f 8/22/6 5/14/6 4/16/6
