# Blender v2.66 (sub 1) OBJ File: 'street_s.blend'
# www.blender.org
mtllib street_s.mtl
o street_s
v 1.000000 0.000000 -1.000000
v 1.000000 0.000000 1.000000
v -1.000000 0.000000 1.000000
v -1.000000 0.000000 -1.000000
v 1.000000 0.005212 -0.999999
v 0.999999 0.005212 1.000001
v -1.000000 0.005212 1.000000
v -1.000000 0.005212 -1.000000
v -0.500000 0.005212 -1.000000
v -0.500000 0.005212 1.000000
v 0.500000 0.005212 -1.000000
v 0.499999 0.005212 1.000000
v 1.000000 0.066312 -0.999999
v 0.999999 0.066312 1.000001
v -1.000000 0.066312 1.000000
v -1.000000 0.066312 -1.000000
v -0.500000 0.066312 -1.000000
v -0.500000 0.066312 1.000000
v 0.500000 0.066312 -1.000000
v 0.499999 0.066312 1.000000
vt 0.000000 0.001556
vt 0.507271 0.000000
vt 0.508827 0.507271
vt 0.963404 0.126822
vt 0.948685 0.380505
vt 0.964182 0.380457
vt 0.910768 0.507271
vt 0.909446 0.507275
vt 0.909211 0.000000
vt 0.762462 0.508049
vt 0.510383 0.000000
vt 0.998444 0.000000
vt 1.000000 0.507271
vt 0.984503 0.507318
vt 0.890836 1.015320
vt 0.764019 1.014931
vt 0.765575 0.507660
vt 0.890836 0.507660
vt 0.764019 0.507271
vt 0.765575 0.000000
vt 0.981390 0.000000
vt 0.982947 0.507271
vt 0.965893 0.000048
vt 0.927821 0.507275
vt 0.912324 0.507322
vt 0.910768 0.000052
vt 0.946196 0.507275
vt 0.930699 0.507322
vt 0.930310 0.380505
vt 0.001556 0.508827
vt 0.947907 0.126869
vt 0.963015 0.000004
vt 0.964337 0.000000
vt 0.947518 0.000051
vt 0.965893 0.507271
vt 0.964571 0.507275
vt 0.949074 0.507322
vt 0.893949 0.507322
vt 0.892392 0.000051
vt 0.907889 0.000004
vt 0.764018 0.000778
vt 0.982947 0.000048
vt 0.892392 0.508049
vt 0.892392 0.000389
vt 0.967450 0.507318
vt 0.926265 0.000004
vt 0.929143 0.507271
vt 0.927587 0.000000
vt 0.945807 0.380457
vt 0.929143 0.000052
vt 0.945029 0.126822
vt 0.929532 0.126869
vt 0.944640 0.000004
vt 0.947518 0.507271
vt 0.945962 0.000000
vn 0.000000 -1.000000 0.000000
vn -0.000000 0.000000 1.000000
vn 1.000000 -0.000091 0.000000
vn 0.000000 1.000000 0.000000
vn 1.000000 0.000000 0.000000
vn -1.000000 0.000000 -0.000000
vn 0.707107 0.000000 -0.707107
vn 0.000000 0.000007 -1.000000
vn -0.000002 0.000069 -1.000000
vn 0.000000 0.000000 -1.000000
vn 1.000000 0.000010 0.000001
vn 0.672673 -0.000000 0.739940
vn -1.000000 -0.000046 -0.000000
vn -1.000000 -0.000057 -0.000000
vn -0.000000 -0.000114 1.000000
vn -0.000000 -0.000077 1.000000
vn -0.000000 0.000034 1.000000
usemtl street_s
s off
f 1/1/1 2/2/1 3/3/1
f 11/4/2 17/5/2 9/6/2
f 1/7/3 5/8/3 2/9/3
f 10/10/4 12/3/4 11/11/4
f 10/12/5 9/13/5 17/14/5
f 20/15/4 14/16/4 13/17/4
f 15/18/4 18/19/4 17/20/4
f 11/21/6 12/22/6 19/23/6
f 7/24/6 15/25/6 16/26/6
f 6/27/2 14/28/2 20/29/2
f 4/30/1 1/1/1 3/3/1
f 19/31/2 17/5/2 11/4/2
f 5/32/7 1/33/7 13/34/7
f 1/33/8 4/35/8 13/34/8
f 4/35/9 8/36/9 13/34/9
f 8/36/10 16/37/10 13/34/10
f 16/37/4 17/5/4 19/31/4
f 13/34/1 16/37/1 19/31/1
f 5/8/5 13/38/5 2/9/5
f 13/38/11 14/39/11 2/9/11
f 14/39/12 6/40/12 2/9/12
f 9/41/4 10/10/4 11/11/4
f 18/42/5 10/12/5 17/14/5
f 19/43/4 20/15/4 13/17/4
f 16/44/4 15/18/4 17/20/4
f 12/22/6 20/45/6 19/23/6
f 7/24/6 16/26/6 8/46/6
f 3/47/13 7/24/13 4/48/13
f 7/24/14 8/46/14 4/48/14
f 6/27/2 20/29/2 12/49/2
f 15/50/2 10/51/2 18/52/2
f 7/53/2 10/51/2 15/50/2
f 2/54/15 6/27/15 12/49/15
f 3/55/16 2/54/16 12/49/16
f 7/53/17 3/55/17 10/51/17
f 3/55/17 12/49/17 10/51/17
