# Blender v2.66 (sub 1) OBJ File: 'street_x.blend'
# www.blender.org
mtllib street_x.mtl
o street_x
v 1.000000 0.000000 -1.000000
v 1.000000 0.000000 1.000000
v -1.000000 0.000000 1.000000
v -1.000000 0.000000 -1.000000
v 1.000000 0.005212 0.500001
v -0.500000 0.005212 -1.000000
v -0.500000 0.005212 1.000000
v -1.000000 0.005212 -0.500000
v 1.000000 0.005212 -0.499999
v 0.500000 0.005212 -1.000000
v 0.499999 0.005212 1.000000
v -1.000000 0.005212 0.500000
v -0.500000 0.005212 0.500000
v 0.500000 0.005212 0.500000
v 0.500000 0.005212 -0.500000
v -0.500000 0.005212 -0.500000
v 1.000000 0.066361 -0.999999
v 0.999999 0.066361 1.000001
v -1.000000 0.066361 1.000000
v -1.000000 0.066361 -1.000000
v 1.000000 0.066361 0.500001
v -0.500000 0.066361 -1.000000
v -0.500000 0.066361 1.000000
v -1.000000 0.066361 -0.500000
v 1.000000 0.066361 -0.499999
v 0.500000 0.066361 -1.000000
v 0.499999 0.066361 1.000000
v -1.000000 0.066361 0.500000
v -0.500000 0.066361 0.500000
v 0.500000 0.066361 0.500000
v 0.500000 0.066361 -0.500000
v -0.500000 0.066361 -0.500000
vt 0.513955 0.515441
vt 0.998514 0.513955
vt 1.000000 0.998514
vt 0.574330 0.121511
vt 0.574702 0.242651
vt 0.559887 0.242697
vt 0.543957 0.121511
vt 0.544328 0.242651
vt 0.529142 0.121557
vt 0.342636 0.000000
vt 0.513955 0.171318
vt 0.256977 0.085659
vt 0.513583 0.635466
vt 0.392443 0.635094
vt 0.392815 0.513955
vt 0.121140 0.635466
vt 0.000000 0.635094
vt 0.000372 0.513955
vt 0.513955 0.121140
vt 0.514326 0.000000
vt 0.635466 0.000372
vt 0.513955 0.513583
vt 0.514326 0.392443
vt 0.635466 0.392815
vt 0.543957 0.242697
vt 0.544328 0.363836
vt 0.529142 0.242742
vt 0.559144 0.242697
vt 0.559515 0.363836
vt 0.544700 0.363882
vt 0.703346 0.121144
vt 0.689274 0.363468
vt 0.704090 0.363423
vt 0.528770 0.271258
vt 0.529142 0.392398
vt 0.513955 0.271304
vt 0.528770 0.121511
vt 0.529142 0.242651
vt 0.513955 0.121557
vt 0.668217 0.121144
vt 0.654145 0.363468
vt 0.668961 0.363423
vt 0.574330 0.242697
vt 0.574702 0.363836
vt 0.559887 0.363882
vt 0.559144 0.121511
vt 0.559515 0.242651
vt 0.544700 0.242697
vt 0.688160 0.484559
vt 0.672082 0.484608
vt 0.671710 0.363468
vt 0.653031 0.484559
vt 0.636953 0.484608
vt 0.636581 0.363468
vt 0.515441 1.000000
vt 0.559515 0.121557
vt 0.529513 0.242697
vt 0.428296 0.256977
vt 0.513955 0.342636
vt 0.342637 0.513955
vt 0.256977 0.428296
vt 0.171318 0.513955
vt 0.000000 0.342636
vt 0.085659 0.256977
vt 0.000000 0.171318
vt 0.171318 0.000000
vt 0.513955 0.514326
vt 0.121511 0.514326
vt 0.635094 0.121511
vt 0.635094 0.513955
vt 0.529513 0.363882
vt 0.544328 0.242742
vt 0.688531 0.121189
vt 0.704237 0.000000
vt 0.705724 0.484559
vt 0.688160 0.000049
vt 0.689646 0.484608
vt 0.514326 0.242697
vt 0.653402 0.121189
vt 0.670595 0.484559
vt 0.654517 0.484608
vt 0.669108 0.000000
vt 0.653031 0.000049
vt 0.559515 0.242742
vt 0.544328 0.121557
vt 0.670595 0.000049
vt 0.685782 0.121143
vt 0.670967 0.121189
vt 0.686673 0.000000
vt 0.686525 0.363423
vt 0.635466 0.000050
vt 0.651544 0.000000
vt 0.635838 0.121189
vt 0.651396 0.363423
vt 0.650653 0.121144
vn 0.000000 -1.000000 0.000000
vn 0.000000 0.000000 -1.000000
vn -0.000000 0.000000 1.000000
vn 0.000000 1.000000 -0.000000
vn -1.000000 0.000000 -0.000000
vn -1.000000 0.000000 -0.000001
vn 1.000000 0.000000 0.000000
vn -0.000000 -0.000009 1.000000
vn -1.000000 -0.000004 -0.000000
vn 0.000000 0.000007 -1.000000
vn 0.000000 0.000005 -1.000000
vn 1.000000 -0.000007 0.000000
vn 1.000000 0.000007 0.000000
vn 1.000000 0.000010 0.000001
vn -0.000000 0.000003 1.000000
vn -0.000000 -0.000006 1.000000
vn -1.000000 -0.000046 -0.000000
usemtl street_x
s off
f 1/1/1 2/2/1 3/3/1
f 13/4/2 12/5/2 28/6/2
f 8/7/3 16/8/3 24/9/3
f 7/10/4 11/11/4 13/12/4
f 29/13/4 28/14/4 19/15/4
f 21/16/4 30/17/4 27/18/4
f 17/19/4 26/20/4 31/21/4
f 22/22/4 20/23/4 24/24/4
f 14/25/5 11/26/5 30/27/5
f 5/28/2 14/29/2 30/30/2
f 10/31/3 22/32/3 6/33/3
f 10/34/5 15/35/5 26/36/5
f 15/37/3 9/38/3 31/39/3
f 5/40/6 25/41/6 9/42/6
f 16/43/7 6/44/7 22/45/7
f 7/46/7 13/47/7 29/48/7
f 2/49/8 18/50/8 27/51/8
f 3/52/9 19/53/9 28/54/9
f 4/55/1 1/1/1 3/3/1
f 29/56/2 13/4/2 28/6/2
f 16/8/3 32/57/3 24/9/3
f 11/11/4 14/58/4 13/12/4
f 14/58/4 5/59/4 13/12/4
f 5/59/4 9/60/4 13/12/4
f 9/60/4 15/61/4 13/12/4
f 15/61/4 10/62/4 13/12/4
f 10/62/4 6/63/4 13/12/4
f 6/63/1 16/64/1 13/12/1
f 16/64/4 8/65/4 12/66/4
f 13/12/4 16/64/4 12/66/4
f 23/67/4 29/13/4 19/15/4
f 18/68/4 21/16/4 27/18/4
f 25/69/4 17/19/4 31/21/4
f 32/70/4 22/22/4 24/24/4
f 11/26/5 27/71/5 30/27/5
f 21/72/2 5/28/2 30/30/2
f 26/73/3 22/32/3 10/31/3
f 1/74/10 4/75/10 17/76/10
f 4/75/11 20/77/11 17/76/11
f 20/77/4 22/32/4 26/73/4
f 17/76/1 20/77/1 26/73/1
f 15/35/5 31/23/5 26/36/5
f 9/38/3 25/78/3 31/39/3
f 21/79/6 25/41/6 5/40/6
f 1/80/12 17/81/12 2/82/12
f 17/81/13 25/41/13 2/82/13
f 25/41/4 21/79/4 18/83/4
f 2/82/14 25/41/14 18/83/14
f 32/84/7 16/43/7 22/45/7
f 23/85/7 7/46/7 29/48/7
f 19/86/3 7/87/3 23/88/3
f 19/86/15 3/89/15 7/87/15
f 3/89/16 2/49/16 27/51/16
f 7/87/10 3/89/10 27/51/10
f 11/90/2 7/87/2 27/51/2
f 20/91/9 4/92/9 24/93/9
f 3/52/5 28/54/5 12/94/5
f 4/92/17 3/52/17 12/94/17
f 24/93/6 4/92/6 8/95/6
f 4/92/17 12/94/17 8/95/17
