# Blender v2.66 (sub 1) OBJ File: 'house_02.blend'
# www.blender.org
mtllib house_02.mtl
o house_02
v 1.000000 0.000000 -1.000000
v 1.000000 0.000000 1.000000
v -1.000000 0.000000 1.000000
v -1.000000 0.000000 -1.000000
v 1.000000 2.555342 -0.999999
v 0.999999 2.555342 1.000001
v -1.000000 2.555342 1.000000
v -1.000000 2.555342 -1.000000
v 0.000000 3.301399 -1.000000
v -0.000001 3.301399 1.000000
vt 0.725334 0.500000
vt 0.475377 0.500000
vt 0.475377 0.250043
vt 0.475377 0.749957
vt 0.156013 0.749957
vt 0.156014 0.499999
vt 0.062773 0.375021
vt 0.156014 0.250042
vt 0.475378 0.000085
vt 0.475377 0.999915
vt 0.000086 0.000085
vt 0.156014 0.000085
vt 0.000086 0.250042
vt 0.000085 0.749957
vt 0.000086 0.499999
vt 0.062772 0.874936
vt 0.156013 0.999915
vt 0.725335 0.250043
vn 0.000000 -1.000000 0.000000
vn 1.000000 -0.000000 0.000001
vn -0.000000 -0.000000 1.000000
vn -1.000000 -0.000000 -0.000000
vn 0.000000 0.000000 -1.000000
vn -0.597975 0.801515 -0.000000
vn 0.597975 0.801515 0.000000
vn 1.000000 0.000000 -0.000000
usemtl house_02
s off
f 1/1/1 2/2/1 3/3/1
f 1/4/2 5/5/2 6/6/2
f 6/6/3 10/7/3 7/8/3
f 3/3/4 7/8/4 4/9/4
f 5/5/5 1/4/5 4/10/5
f 9/11/6 8/12/6 10/13/6
f 5/5/7 9/14/7 10/15/7
f 2/2/3 6/6/3 3/3/3
f 9/16/5 5/5/5 8/17/5
f 4/18/1 1/1/1 3/3/1
f 2/2/8 1/4/8 6/6/8
f 7/8/4 8/12/4 4/9/4
f 8/17/5 5/5/5 4/10/5
f 8/12/6 7/8/6 10/13/6
f 6/6/7 5/5/7 10/15/7
f 6/6/3 7/8/3 3/3/3
